<svg viewBox="0 0 48 48" xml:space="preserve" xmlns="http://www.w3.org/2000/svg"><path d="M23.838 43.27c-.328 0-.65-.162-.842-.459-2.199-3.415-4.709-6.971-8.157-9.842-1.436-1.195-2.807-2.39-3.789-3.854-2.14-3.185-3.942-6.705-2.661-10.862 2.504-8.122 9.799-12.411 18.15-10.672 7.113 1.479 11.432 8.288 11.497 14.017.051 4.458-1.717 7.896-5.729 11.147-2.907 2.354-5.862 4.97-7.253 8.752a.997.997 0 0 1-.284.411 1 1 0 0 1-.392 1.201.981.981 0 0 1-.54.161zM22.85 9.191c-5.914 0-10.668 3.552-12.549 9.651-.977 3.168.257 5.953 2.41 9.158.836 1.246 2.038 2.291 3.408 3.432 3.041 2.531 5.43 5.623 7.398 8.533 1.656-3.797 4.619-6.414 7.532-8.773 3.54-2.869 5.032-5.73 4.988-9.571-.057-4.938-3.776-10.807-9.903-12.081a16.057 16.057 0 0 0-3.284-.349z" fill="#cc2448" class="fill-000000"></path><path d="M19.135 28.313a1 1 0 0 1-.994-1.113l.456-4.052-3.247-2.976a.998.998 0 0 1 .569-1.731l3.823-.413 3.092-3.248a1.003 1.003 0 0 1 1.415-.035l.015.014a1 1 0 0 1 .845.852c.247 1.78 1.004 1.92 3.154 2.064.824.055 1.759.117 2.685.375a1 1 0 0 1 .285 1.796l-3.434 2.283.016.047 1.448 4.809a1.002 1.002 0 0 1-1.3 1.229l-4.852-1.77-3.527 1.764a1.033 1.033 0 0 1-.449.105zm3.912-3.957c.115 0 .231.02.343.061l3.382 1.233-.811-2.688-.36-.41a.998.998 0 0 1 .196-1.495l2.109-1.402c-1.707-.118-3.692-.342-4.498-2.579l-2.472 2.596a1.003 1.003 0 0 1-.616.305l-1.99.215 1.992 1.825c.235.216.354.532.318.849l-.307 2.728 2.266-1.132a1 1 0 0 1 .448-.106z" fill="#cc2448" class="fill-000000"></path><path d="M23.19 32.506c-2.518 0-4.925-.908-6.724-2.671-3.889-3.81-4.838-7.29-3.385-12.413 1.248-4.401 4.739-5.964 7.913-7.083a.986.986 0 0 1 .473-.047c.34-.049.714-.02 1.074-.033.736-.026 1.496-.055 2.271.054 5.342.75 11.284 4.264 10.453 11.7-.573 5.131-3.743 7.492-6.77 9.124-1.705.918-3.533 1.369-5.305 1.369zm-1.68-20.229c-3.366 1.204-5.627 2.593-6.506 5.69-1.251 4.412-.502 7.144 2.861 10.438 2.437 2.387 6.327 2.777 9.681.969 3.691-1.99 5.352-4.188 5.73-7.585.867-7.75-7.131-9.271-8.742-9.498-.599-.083-1.241-.061-1.92-.035-.369.015-.747.053-1.104.021z" fill="#cc2448" class="fill-000000"></path></svg>